<svg xmlns="http://www.w3.org/2000/svg" viewBox="0 0 16 16"><path d="M6.33 1.29l-3.44.64h-.55v12.78h.65V4.41l.26 1.37 8.56 4.41c.08.03.11.09.22.09.92-.41 1.55-1.28 1.64-2.28-.71-.7-4.89-4.47-7.34-6.71zm-2.97 3.7l-.37-2.4v-.4l2.64-.4a4.934 4.934 0 00-2.27 3.2zm3.8 2.45l-1.65-.85c.1-1.46.97-2.76 2.28-3.42l1.43 1.27a3.631 3.631 0 00-2.06 3zm3.37 1.76l-1.51-.77c.22-1.07.86-2.01 1.79-2.59l1.29 1.14a4.82 4.82 0 00-1.57 2.22zm1.56.8l-.05-.02c.23-.75.68-1.42 1.29-1.93l.05.05.01-.01c-.19.77-.65 1.45-1.3 1.91z" fill="#fff"/><path fill="none" d="M0 0h16v16H0z"/></svg>